<?xml version="1.0" encoding="UTF-8" standalone="no"?>
<svg
   xmlns:dc="http://purl.org/dc/elements/1.1/"
   xmlns:cc="http://creativecommons.org/ns#"
   xmlns:rdf="http://www.w3.org/1999/02/22-rdf-syntax-ns#"
   xmlns:svg="http://www.w3.org/2000/svg"
   xmlns="http://www.w3.org/2000/svg"
   xmlns:sodipodi="http://sodipodi.sourceforge.net/DTD/sodipodi-0.dtd"
   xmlns:inkscape="http://www.inkscape.org/namespaces/inkscape"
   version="1.1"
   width="1024px"
   height="1536px"
   style="shape-rendering:geometricPrecision; text-rendering:geometricPrecision; image-rendering:optimizeQuality; fill-rule:evenodd; clip-rule:evenodd"
   id="svg306"
   sodipodi:docname="logo_simples_planta_celular (1).svg"
   inkscape:version="1.0.1 (3bc2e813f5, 2020-09-07)">
  <metadata
     id="metadata312">
    <rdf:RDF>
      <cc:Work
         rdf:about="">
        <dc:format>image/svg+xml</dc:format>
        <dc:type
           rdf:resource="http://purl.org/dc/dcmitype/StillImage" />
      </cc:Work>
    </rdf:RDF>
  </metadata>
  <defs
     id="defs310" />
  <sodipodi:namedview
     pagecolor="#ffffff"
     bordercolor="#666666"
     borderopacity="1"
     objecttolerance="10"
     gridtolerance="10"
     guidetolerance="10"
     inkscape:pageopacity="0"
     inkscape:pageshadow="2"
     inkscape:window-width="640"
     inkscape:window-height="480"
     id="namedview308"
     showgrid="false"
     inkscape:zoom="0.22741585"
     inkscape:cx="-51.52296"
     inkscape:cy="560.9461"
     inkscape:current-layer="svg306" />
  <g
     id="g24">
    <path
       style="opacity:1"
       fill="#b7d5a9"
       d="M 702.5,161.5 C 712.67,190.511 720.503,220.178 726,250.5C 733.864,295.539 730.197,339.539 715,382.5C 713.852,386.89 711.352,389.89 707.5,391.5C 705.901,391.768 704.568,391.434 703.5,390.5C 704.552,390.649 705.552,390.483 706.5,390C 704.833,389.667 703.167,389.333 701.5,389C 676.169,388.5 650.836,388.333 625.5,388.5C 628.15,376.047 631.317,363.714 635,351.5C 640.523,337.935 645.856,324.268 651,310.5C 653.005,303.51 650.505,300.676 643.5,302C 635.945,310.94 629.778,320.773 625,331.5C 616.917,349.915 610.75,368.915 606.5,388.5C 587.167,388.5 567.833,388.5 548.5,388.5C 543.049,359.688 544.715,331.354 553.5,303.5C 574.921,248.339 609.587,203.339 657.5,168.5C 665.739,162.105 674.406,156.272 683.5,151C 692.443,149.804 698.777,153.304 702.5,161.5 Z"
       id="path22" />
  </g>
  <g
     id="g36">
    <path
       style="opacity:1"
       fill="#a0c39b"
       d="M 625.5,388.5 C 619.167,388.5 612.833,388.5 606.5,388.5C 610.75,368.915 616.917,349.915 625,331.5C 629.778,320.773 635.945,310.94 643.5,302C 650.505,300.676 653.005,303.51 651,310.5C 645.856,324.268 640.523,337.935 635,351.5C 631.317,363.714 628.15,376.047 625.5,388.5 Z"
       id="path34" />
  </g>
  <g
     id="g40">
    <path
       style="opacity:1"
       fill="#b5d4a7"
       d="M 383.5,337.5 C 415.375,349.424 444.041,366.424 469.5,388.5C 431.827,388.833 394.161,388.5 356.5,387.5C 350.147,373.087 345.813,358.087 343.5,342.5C 343.165,337.009 345.498,333.176 350.5,331C 361.873,331.091 372.873,333.258 383.5,337.5 Z"
       id="path38" />
  </g>
  <g
     id="g48">
    <path
       style="opacity:1"
       fill="#d8eec2"
       d="M 548.5,389.5 C 548.5,389.167 548.5,388.833 548.5,388.5C 567.833,388.5 587.167,388.5 606.5,388.5C 612.833,388.5 619.167,388.5 625.5,388.5C 650.836,388.333 676.169,388.5 701.5,389C 703.167,389.333 704.833,389.667 706.5,390C 705.552,390.483 704.552,390.649 703.5,390.5C 691.167,390.5 678.833,390.5 666.5,390.5C 627.337,389.501 588.004,389.168 548.5,389.5 Z"
       id="path46" />
  </g>
  <g
     id="g52">
    <path
       style="opacity:1"
       fill="#eff5e0"
       d="M 776.5,467.5 C 776.167,467.5 775.833,467.5 775.5,467.5C 775.702,465.05 775.369,462.717 774.5,460.5C 772.609,449.492 768.942,439.158 763.5,429.5C 763.435,429.062 763.601,428.728 764,428.5C 771.61,440.389 775.777,453.389 776.5,467.5 Z"
       id="path50" />
  </g>
  <g
     id="g56">
    <path
       style="opacity:1"
       fill="#b4d3a7"
       d="M 868.5,453.5 C 873.296,454.292 876.63,456.959 878.5,461.5C 878.234,471.899 876.067,481.899 872,491.5C 866.815,505.535 860.315,518.868 852.5,531.5C 833.298,565.875 808.132,595.208 777,619.5C 776.5,568.834 776.333,518.168 776.5,467.5C 806.417,458.292 837.084,453.626 868.5,453.5 Z"
       id="path54" />
  </g>
  <g
     id="g64">
    <path
       style="opacity:1"
       fill="#edf4da"
       d="M 775.5,620.5 C 776.996,665.325 777.663,710.325 777.5,755.5C 776.833,755.5 776.167,755.5 775.5,755.5C 775.5,710.833 775.5,666.167 775.5,621.5C 775.5,621.167 775.5,620.833 775.5,620.5 Z"
       id="path62" />
  </g>
  <g
     id="g76">
    <path
       style="opacity:1"
       fill="#ede0b0"
       d="M 775.5,755.5 C 776.167,755.5 776.833,755.5 777.5,755.5C 777.5,755.833 777.5,756.167 777.5,756.5C 777.5,816.167 777.5,875.833 777.5,935.5C 777.5,998.167 777.5,1060.83 777.5,1123.5C 776.833,1107.83 776.167,1092.17 775.5,1076.5C 775.5,969.5 775.5,862.5 775.5,755.5 Z"
       id="path74" />
  </g>
  <g
     id="g80">
    <path
       style="opacity:1"
       fill="#1e4c38"
       d="M 774.5,460.5 C 775.369,462.717 775.702,465.05 775.5,467.5C 775.5,518.5 775.5,569.5 775.5,620.5C 775.5,620.833 775.5,621.167 775.5,621.5C 774.5,771.332 774.167,921.332 774.5,1071.5C 773.167,867.833 773.167,664.167 774.5,460.5 Z"
       id="path78" />
  </g>
  <g
     id="g84">
    <path
       style="opacity:1"
       fill="#fdfdf4"
       d="M 246.5,459.5 C 246.833,459.5 247.167,459.5 247.5,459.5C 246.168,710.163 246.168,960.83 247.5,1211.5C 246.684,1210.84 246.017,1209.51 245.5,1207.5C 245.5,1101.17 245.5,994.833 245.5,888.5C 245.173,745.479 245.506,602.479 246.5,459.5 Z"
       id="path82" />
  </g>
  <g
     id="g88">
    <path
       style="opacity:1"
       fill="#ccc799"
       d="M 777.5,756.5 C 784.858,756.418 792.191,756.752 799.5,757.5C 816.429,758.799 833.096,761.633 849.5,766C 856.205,768.041 861.038,772.208 864,778.5C 864.667,785.833 864.667,793.167 864,800.5C 860.904,824.982 856.904,849.315 852,873.5C 850.333,876.5 848.667,879.5 847,882.5C 840.48,888.428 833.147,893.094 825,896.5C 823.6,906.324 822.1,915.991 820.5,925.5C 820.649,924.448 820.483,923.448 820,922.5C 819.489,924.878 818.822,927.212 818,929.5C 816.209,927.971 814.542,926.304 813,924.5C 812.417,926.002 811.584,927.335 810.5,928.5C 809.5,927.167 808.5,927.167 807.5,928.5C 806.808,927.975 806.308,927.308 806,926.5C 805.395,928.481 804.395,928.815 803,927.5C 801.956,928.623 801.29,929.956 801,931.5C 800.51,930.207 800.343,928.873 800.5,927.5C 799.127,927.343 797.793,927.51 796.5,928C 795.252,929.959 793.585,931.459 791.5,932.5C 790.749,931.624 790.249,930.624 790,929.5C 789.167,930.5 788.333,931.5 787.5,932.5C 785.568,930.611 783.735,928.611 782,926.5C 779.632,929.126 778.132,932.126 777.5,935.5C 777.5,875.833 777.5,816.167 777.5,756.5 Z"
       id="path86" />
  </g>
  <g
     id="g92">
    <path
       style="opacity:1"
       fill="#d6cf9e"
       d="M 839.5,792.5 C 844.401,792.172 845.235,793.506 842,796.5C 841.667,796.167 841.333,795.833 841,795.5C 839.933,796.191 838.766,796.691 837.5,797C 839.167,797.333 840.833,797.667 842.5,798C 840.774,800.198 838.774,802.032 836.5,803.5C 837.103,804.635 837.436,805.635 837.5,806.5C 838.258,805.189 839.258,804.689 840.5,805C 840.043,805.414 839.709,805.914 839.5,806.5C 841.184,807.854 841.684,809.521 841,811.5C 840.507,808.015 839.007,807.515 836.5,810C 837.448,810.483 838.448,810.649 839.5,810.5C 839.822,812.722 839.155,814.556 837.5,816C 838.416,816.374 839.25,816.874 840,817.5C 840.815,812.561 843.648,810.727 848.5,812C 847.773,813.399 847.273,814.899 847,816.5C 846.581,815.328 845.915,814.328 845,813.5C 844.833,814 844.667,814.5 844.5,815C 845.921,817.843 846.921,820.843 847.5,824C 842.339,824.397 841.505,826.231 845,829.5C 847.031,824.319 848.197,824.653 848.5,830.5C 847.448,830.351 846.448,830.517 845.5,831C 850.518,831.544 850.518,832.711 845.5,834.5C 846.718,835.803 846.385,836.803 844.5,837.5C 845.54,839.523 846.54,841.523 847.5,843.5C 847.176,845.569 846.342,845.902 845,844.5C 843.448,847.153 843.615,849.819 845.5,852.5C 845.167,853.5 844.5,854.167 843.5,854.5C 842.402,853.385 841.235,853.385 840,854.5C 837.898,853.962 837.065,852.962 837.5,851.5C 837.167,852 836.833,852.5 836.5,853C 837.167,854.333 837.833,855.667 838.5,857C 837.205,857.702 835.872,858.369 834.5,859C 836.957,860.154 836.957,861.488 834.5,863C 835.126,863.75 835.626,864.584 836,865.5C 836.903,864.299 838.069,863.465 839.5,863C 838.692,862.692 838.025,862.192 837.5,861.5C 839.296,860.859 840.796,859.859 842,858.5C 842.309,859.766 842.809,860.933 843.5,862C 843.167,862.333 842.833,862.667 842.5,863C 843.357,863.689 844.023,864.522 844.5,865.5C 845.98,866.113 847.313,866.446 848.5,866.5C 847.273,867.59 846.44,868.924 846,870.5C 844.398,868.693 843.064,866.693 842,864.5C 841.74,866.618 840.74,868.284 839,869.5C 838.667,869.167 838.333,868.833 838,868.5C 835.821,871.011 833.321,873.178 830.5,875C 830.833,875.333 831.167,875.667 831.5,876C 830.107,877.171 829.273,878.671 829,880.5C 828.257,878.355 827.424,878.189 826.5,880C 826.903,881.473 827.57,882.806 828.5,884C 826.481,883.848 824.481,883.348 822.5,882.5C 822.5,881.167 822.5,879.833 822.5,878.5C 820.801,878.34 819.134,878.506 817.5,879C 820.646,879.11 821.646,880.443 820.5,883C 821.328,883.915 822.328,884.581 823.5,885C 822.552,885.483 821.552,885.649 820.5,885.5C 820.762,886.978 820.429,888.311 819.5,889.5C 818.604,888.494 817.938,888.494 817.5,889.5C 818.641,890.425 818.641,891.259 817.5,892C 819.135,892.54 820.468,892.04 821.5,890.5C 821.109,891.718 821.776,892.552 823.5,893C 808.931,897.633 793.931,900.466 778.5,901.5C 778.5,869.167 778.5,836.833 778.5,804.5C 799.238,801.752 819.572,797.752 839.5,792.5 Z"
       id="path90" />
  </g>
  <g
     id="g100">
    <path
       style="opacity:1"
       fill="#2a5540"
       d="M 666.5,390.5 C 678.833,390.5 691.167,390.5 703.5,390.5C 704.568,391.434 705.901,391.768 707.5,391.5C 731.342,396.739 750.009,409.406 763.5,429.5C 768.942,439.158 772.609,449.492 774.5,460.5C 773.167,664.167 773.167,867.833 774.5,1071.5C 774.462,1118.02 774.462,1164.36 774.5,1210.5C 769.068,1240.92 752.402,1262.58 724.5,1275.5C 718.981,1277.63 713.314,1279.3 707.5,1280.5C 707.083,1279.88 706.416,1279.54 705.5,1279.5C 702.194,1280.16 698.861,1280.66 695.5,1281C 571.666,1281.17 447.999,1281.67 324.5,1282.5C 311.996,1280.44 299.996,1276.78 288.5,1271.5C 266.883,1256.93 253.217,1236.93 247.5,1211.5C 246.168,960.83 246.168,710.163 247.5,459.5C 256.617,422.883 279.617,400.05 316.5,391C 433.166,390.5 549.833,390.333 666.5,390.5 Z"
       id="path98" />
  </g>
  <g
     id="g104">
    <path
       style="opacity:1"
       fill="#ebefda"
       d="M 733.5,704.5 C 733.5,707.5 733.5,710.5 733.5,713.5C 733.5,850.167 733.5,986.833 733.5,1123.5C 733.5,1124.83 733.5,1126.17 733.5,1127.5C 732.799,1131.59 730.799,1134.92 727.5,1137.5C 729.817,1133.86 731.317,1129.86 732,1125.5C 731.101,985.002 731.601,844.668 733.5,704.5 Z"
       id="path102" />
  </g>
  <g
     id="g108">
    <path
       style="opacity:1"
       fill="#143f2c"
       d="M 289.5,655.5 C 289.5,724.833 289.5,794.167 289.5,863.5C 288.502,897.996 288.168,932.663 288.5,967.5C 287.347,849.502 287.18,683.502 288,469.5C 288.167,531.668 288.667,593.668 289.5,655.5 Z"
       id="path106" />
  </g>
  <g
     id="g112">
    <path
       style="opacity:1"
       fill="#fdfde8"
       d="M 733.5,471.5 C 733.5,512.833 733.5,554.167 733.5,595.5C 732.833,621.5 732.167,647.5 731.5,673.5C 731.684,605.998 732.35,538.664 733.5,471.5 Z"
       id="path110" />
  </g>
  <g
     id="g120">
    <path
       style="opacity:1"
       fill="#081d15"
       d="M 383.5,878.5 C 382.048,886.895 381.048,895.229 380.5,903.5C 380.334,896.492 380.5,889.492 381,882.5C 381.608,880.934 382.442,879.6 383.5,878.5 Z"
       id="path118" />
  </g>
  <g
     id="g124">
    <path
       style="opacity:1"
       fill="#fbfce3"
       d="M 499.5,861.5 C 499.5,863.5 499.5,865.5 499.5,867.5C 464.498,867.333 429.498,867.5 394.5,868C 393.255,868.791 391.922,869.291 390.5,869.5C 390.062,869.565 389.728,869.399 389.5,869C 392.246,867.25 395.246,866.25 398.5,866C 431.832,865.5 465.165,865.333 498.5,865.5C 498.232,863.901 498.566,862.568 499.5,861.5 Z"
       id="path122" />
  </g>
  <g
     id="g128">
    <path
       style="opacity:1"
       fill="#f5f7e1"
       d="M 542.5,810.5 C 542.833,810.5 543.167,810.5 543.5,810.5C 534.149,827.547 527.149,845.547 522.5,864.5C 555.495,865.333 588.495,865.833 621.5,866C 628.784,867.059 634.617,870.559 639,876.5C 640.298,877.946 640.465,879.279 639.5,880.5C 636.178,874.347 631.178,870.18 624.5,868C 589.829,867.833 555.162,867.333 520.5,866.5C 521.325,864.199 521.992,861.865 522.5,859.5C 523.92,851.997 525.92,844.664 528.5,837.5C 532.88,828.409 537.546,819.409 542.5,810.5 Z"
       id="path126" />
  </g>
  <g
     id="g132">
    <path
       style="opacity:1"
       fill="#0d281e"
       d="M 528.5,837.5 C 525.92,844.664 523.92,851.997 522.5,859.5C 522.283,851.714 524.283,844.381 528.5,837.5 Z"
       id="path130" />
  </g>
  <g
     id="g136">
    <path
       style="opacity:1"
       fill="#ecf0df"
       d="M 476.5,789.5 C 480.381,796.595 483.715,803.929 486.5,811.5C 492.129,826.054 496.129,841.054 498.5,856.5C 498.657,857.873 498.49,859.207 498,860.5C 493.895,836.082 486.395,812.749 475.5,790.5C 475.624,789.893 475.957,789.56 476.5,789.5 Z"
       id="path134" />
  </g>
  <g
     id="g140">
    <path
       style="opacity:1"
       fill="#e4ebd9"
       d="M 489.5,705.5 C 492.922,710.678 496.589,715.678 500.5,720.5C 498.683,746.788 498.017,773.121 498.5,799.5C 498.737,800.791 498.404,801.791 497.5,802.5C 494.299,793.766 490.299,785.433 485.5,777.5C 485.81,776.262 486.31,776.262 487,777.5C 490.27,783.04 493.27,788.707 496,794.5C 496.265,769.797 496.931,745.131 498,720.5C 494.636,715.77 491.803,710.77 489.5,705.5 Z"
       id="path138" />
  </g>
  <g
     id="g144">
    <path
       style="opacity:1"
       fill="#081e16"
       d="M 500.5,720.5 C 501.161,722.134 501.494,723.967 501.5,726C 500.043,750.637 499.043,775.137 498.5,799.5C 498.017,773.121 498.683,746.788 500.5,720.5 Z"
       id="path142" />
  </g>
  <rect
     style="fill:#ffffff;stroke:#040000;stroke-width:3.88913;stroke-linecap:square;paint-order:markers stroke fill"
     id="rect1137"
     width="430.56073"
     height="699.08704"
     x="296.93927"
     y="438.41293"
     rx="11.3498" />
  <g
     id="g148">
    <path
       style="opacity:1"
       fill="#204a3c"
       d="M 482.5,772.5 C 483.11,774.434 484.11,776.101 485.5,777.5C 490.299,785.433 494.299,793.766 497.5,802.5C 493.083,793.739 487.916,784.739 482,775.5C 481.218,778.257 481.718,780.757 483.5,783C 481.273,783.121 479.44,783.954 478,785.5C 477.28,783.745 476.113,782.911 474.5,783C 479.508,791.849 483.841,801.015 487.5,810.5C 487.376,811.107 487.043,811.44 486.5,811.5C 483.715,803.929 480.381,796.595 476.5,789.5C 475.974,787.77 474.974,786.436 473.5,785.5C 469.803,777.112 465.303,769.112 460,761.5C 447.375,745.873 434.375,730.54 421,715.5C 418.135,712.772 416.635,709.438 416.5,705.5C 419.226,705.264 421.559,706.097 423.5,708C 435.638,719.137 447.471,730.637 459,742.5C 467.577,752.025 475.41,762.025 482.5,772.5 Z"
       id="path146" />
  </g>
  <g
     id="g152">
    <path
       style="opacity:1"
       fill="#325448"
       d="M 518.5,682.5 C 516.885,695.803 515.552,709.136 514.5,722.5C 514.5,744.833 514.5,767.167 514.5,789.5C 513.833,770.167 513.167,750.833 512.5,731.5C 513.197,714.876 515.197,698.543 518.5,682.5 Z"
       id="path150" />
  </g>
  <g
     id="g156">
    <path
       style="opacity:1"
       fill="#719e5a"
       d="M 543.5,810.5 C 543.167,810.5 542.833,810.5 542.5,810.5C 548.3,799.524 555.133,789.191 563,779.5C 576.333,764.833 590.333,750.833 605,737.5C 608.727,732.227 607.561,730.727 601.5,733C 583.448,746.712 566.281,761.546 550,777.5C 542.531,786.454 535.697,795.788 529.5,805.5C 529.5,797.167 529.5,788.833 529.5,780.5C 530.843,765.634 535.343,751.634 543,738.5C 569.481,702.831 604.981,682.498 649.5,677.5C 654.716,677.075 658.549,679.075 661,683.5C 661.667,688.167 661.667,692.833 661,697.5C 657.902,717.027 650.902,735.027 640,751.5C 618.504,788.343 586.337,808.01 543.5,810.5 Z"
       id="path154" />
  </g>
  <g
     id="g160">
    <path
       style="opacity:1"
       fill="#709e5b"
       d="M 482.5,772.5 C 475.41,762.025 467.577,752.025 459,742.5C 447.471,730.637 435.638,719.137 423.5,708C 421.559,706.097 419.226,705.264 416.5,705.5C 416.635,709.438 418.135,712.772 421,715.5C 434.375,730.54 447.375,745.873 460,761.5C 465.303,769.112 469.803,777.112 473.5,785.5C 449.598,785.033 428.265,777.533 409.5,763C 377.232,730.954 361.066,692.12 361,646.5C 361.883,643.898 363.383,641.731 365.5,640C 369.5,639.333 373.5,639.333 377.5,640C 409.485,648.237 436.318,664.737 458,689.5C 477.462,713.656 485.629,741.322 482.5,772.5 Z"
       id="path158" />
  </g>
  <g
     id="g164">
    <path
       style="opacity:1"
       fill="#719e5b"
       d="M 581.5,593.5 C 581.926,600.658 582.26,607.824 582.5,615C 583.228,640.951 575.728,664.117 560,684.5C 546.471,699.201 531.305,711.868 514.5,722.5C 515.552,709.136 516.885,695.803 518.5,682.5C 523.415,662.682 528.748,642.849 534.5,623C 534.563,620.058 533.23,619.058 530.5,620C 521.184,637.607 514.017,656.107 509,675.5C 505.088,690.305 502.255,705.305 500.5,720.5C 496.589,715.678 492.922,710.678 489.5,705.5C 472.198,674.508 470.031,642.508 483,609.5C 492.559,589.117 505.393,571.117 521.5,555.5C 531.47,545.361 542.47,536.528 554.5,529C 558.672,528.132 561.838,529.632 564,533.5C 571.72,553.063 577.553,573.063 581.5,593.5 Z"
       id="path162" />
  </g>
  <g
     id="g168">
    <path
       style="opacity:1"
       fill="#123c2b"
       d="M 733.5,713.5 C 733.5,710.5 733.5,707.5 733.5,704.5C 733.5,668.167 733.5,631.833 733.5,595.5C 733.5,554.167 733.5,512.833 733.5,471.5C 733.5,470.167 733.5,468.833 733.5,467.5C 734.341,466.991 734.841,467.657 735,469.5C 735.167,485.167 735.333,500.833 735.5,516.5C 734.735,608.166 734.568,699.832 735,791.5C 734.832,765.33 734.332,739.33 733.5,713.5 Z"
       id="path166" />
  </g>
  <g
     id="g176">
    <path
       style="opacity:1"
       fill="#fdfdf0"
       d="M 441.5,463.5 C 443.435,464.15 445.435,464.483 447.5,464.5C 489.331,465.333 531.331,465.833 573.5,466C 531.167,466.667 488.833,466.667 446.5,466C 443.749,465.876 442.082,465.043 441.5,463.5 Z"
       id="path174" />
  </g>
  <g
     id="g180">
    <path
       style="opacity:1"
       fill="#f0f4df"
       d="M 699.5,434.5 C 668.35,436.201 637.017,436.867 605.5,436.5C 605.035,440.062 603.868,443.395 602,446.5C 597.253,454.132 590.753,459.798 582.5,463.5C 581.893,463.376 581.56,463.043 581.5,462.5C 589.721,458.806 596.221,453.14 601,445.5C 602.868,442.395 604.035,439.062 604.5,435.5C 636.163,434.889 667.83,434.556 699.5,434.5 Z"
       id="path178" />
  </g>
  <g
     id="g184"
     transform="matrix(1,0,0,1.7852198,0,-341.178)">
    <path
       style="opacity:1"
       fill="#234e3d"
       d="m 480.5,434.5 c 9.834,0.655 19.667,1.321 29.5,2 12.488,-1.218 25.155,-1.218 38,0 2,-0.667 4,-1.333 6,-2 0.333,0.667 0.667,1.333 1,2 3.398,-0.534 6.898,-0.534 10.5,0 -0.17,1.322 0.163,2.489 1,3.5 -3.162,0.854 -4.329,2.688 -3.5,5.5 -1.154,1.243 -2.488,2.243 -4,3 -8.667,-1.333 -17.333,-1.333 -26,0 -22.37,-1.998 -45.037,-1.998 -68,0 -4.134,-0.696 -8.3,-1.363 -12.5,-2 -0.586,0.209 -1.086,0.543 -1.5,1 -1.306,-1.412 -2.14,-3.079 -2.5,-5 0.568,-1.704 0.568,-3.204 0,-4.5 0.5,-0.5 1,-1 1.5,-1.5 9.47,-0.903 19.47,-0.903 30,0 0.464,-0.594 0.631,-1.261 0.5,-2 z"
       id="path182" />
  </g>
  <g
     id="g192">
    <path
       style="opacity:1"
       fill="#d4cd9d"
       d="M 820.5,925.5 C 811.482,979.569 802.148,1033.57 792.5,1087.5C 790.938,1097.08 788.438,1106.42 785,1115.5C 783,1118.67 780.5,1121.33 777.5,1123.5C 777.5,1060.83 777.5,998.167 777.5,935.5C 778.132,932.126 779.632,929.126 782,926.5C 783.735,928.611 785.568,930.611 787.5,932.5C 788.333,931.5 789.167,930.5 790,929.5C 790.249,930.624 790.749,931.624 791.5,932.5C 793.585,931.459 795.252,929.959 796.5,928C 797.793,927.51 799.127,927.343 800.5,927.5C 800.343,928.873 800.51,930.207 801,931.5C 801.29,929.956 801.956,928.623 803,927.5C 804.395,928.815 805.395,928.481 806,926.5C 806.308,927.308 806.808,927.975 807.5,928.5C 808.5,927.167 809.5,927.167 810.5,928.5C 811.584,927.335 812.417,926.002 813,924.5C 814.542,926.304 816.209,927.971 818,929.5C 818.822,927.212 819.489,924.878 820,922.5C 820.483,923.448 820.649,924.448 820.5,925.5 Z"
       id="path190" />
  </g>
  <g
     id="g196">
    <path
       style="opacity:1"
       fill="#eaefdd"
       d="M 397.5,953.5 C 405.382,988.69 413.216,1024.02 421,1059.5C 427.13,1072.65 437.297,1080.65 451.5,1083.5C 452.492,1083.33 453.158,1083.66 453.5,1084.5C 438.418,1082.59 427.252,1074.93 420,1061.5C 412.391,1026.57 404.558,991.736 396.5,957C 397.337,955.989 397.67,954.822 397.5,953.5 Z"
       id="path194" />
  </g>
  <g
     id="g200">
    <path
       style="opacity:1"
       fill="#073727"
       d="M 775.5,621.5 C 775.5,666.167 775.5,710.833 775.5,755.5C 775.5,862.5 775.5,969.5 775.5,1076.5C 775.802,1121.18 775.469,1165.85 774.5,1210.5C 774.462,1164.36 774.462,1118.02 774.5,1071.5C 774.167,921.332 774.5,771.332 775.5,621.5 Z"
       id="path198" />
  </g>
  <g
     id="g204">
    <path
       style="opacity:1"
       fill="#244e3e"
       d="M 518.5,682.5 C 515.197,698.543 513.197,714.876 512.5,731.5C 512.134,762.537 512.8,790.204 514.5,814.5C 514.833,814.5 515.167,814.5 515.5,814.5C 515.334,821.508 515.5,828.508 516,835.5C 520.238,825.36 524.738,815.36 529.5,805.5C 535.697,795.788 542.531,786.454 550,777.5C 566.281,761.546 583.448,746.712 601.5,733C 607.561,730.727 608.727,732.227 605,737.5C 590.333,750.833 576.333,764.833 563,779.5C 555.133,789.191 548.3,799.524 542.5,810.5C 537.546,819.409 532.88,828.409 528.5,837.5C 524.283,844.381 522.283,851.714 522.5,859.5C 521.992,861.865 521.325,864.199 520.5,866.5C 555.162,867.333 589.829,867.833 624.5,868C 631.178,870.18 636.178,874.347 639.5,880.5C 640.951,883.81 641.618,887.31 641.5,891C 640.83,903.547 639.663,916.047 638,928.5C 636.928,933.383 635.261,938.05 633,942.5C 629.842,945.08 626.508,947.413 623,949.5C 618.95,968.47 615.117,987.47 611.5,1006.5C 608.124,1025.67 603.957,1044.67 599,1063.5C 592.029,1073.23 582.863,1079.9 571.5,1083.5C 531.544,1082.58 491.544,1082.58 451.5,1083.5C 437.297,1080.65 427.13,1072.65 421,1059.5C 413.216,1024.02 405.382,988.69 397.5,953.5C 397.509,951.692 397.009,950.025 396,948.5C 391,946.167 387.333,942.5 385,937.5C 382.681,926.283 381.181,914.95 380.5,903.5C 381.048,895.229 382.048,886.895 383.5,878.5C 384.725,874.612 387.059,871.612 390.5,869.5C 391.922,869.291 393.255,868.791 394.5,868C 429.498,867.5 464.498,867.333 499.5,867.5C 499.5,865.5 499.5,863.5 499.5,861.5C 499.784,859.585 499.451,857.919 498.5,856.5C 496.129,841.054 492.129,826.054 486.5,811.5C 487.043,811.44 487.376,811.107 487.5,810.5C 483.841,801.015 479.508,791.849 474.5,783C 476.113,782.911 477.28,783.745 478,785.5C 479.44,783.954 481.273,783.121 483.5,783C 481.718,780.757 481.218,778.257 482,775.5C 487.916,784.739 493.083,793.739 497.5,802.5C 498.404,801.791 498.737,800.791 498.5,799.5C 499.043,775.137 500.043,750.637 501.5,726C 501.494,723.967 501.161,722.134 500.5,720.5C 502.255,705.305 505.088,690.305 509,675.5C 514.017,656.107 521.184,637.607 530.5,620C 533.23,619.058 534.563,620.058 534.5,623C 528.748,642.849 523.415,662.682 518.5,682.5 Z"
       id="path202" />
  </g>
  <g
     id="g208">
    <path
       style="opacity:1"
       fill="#011c23"
       d="M 449.5,1062.5 C 451.593,1063.04 453.593,1063.88 455.5,1065C 492.832,1065.5 530.165,1065.67 567.5,1065.5C 530.002,1066.66 492.336,1066.83 454.5,1066C 451.891,1065.14 450.225,1063.97 449.5,1062.5 Z"
       id="path206" />
  </g>
  <g
     id="g212">
    <path
       style="opacity:1"
       fill="#edd27e"
       d="M 442.5,1055.5 C 446.066,1058.54 450.066,1061.04 454.5,1063C 492.5,1063.67 530.5,1063.67 568.5,1063C 571.059,1061.22 573.726,1059.72 576.5,1058.5C 573.786,1061.22 570.786,1063.55 567.5,1065.5C 530.165,1065.67 492.832,1065.5 455.5,1065C 453.593,1063.88 451.593,1063.04 449.5,1062.5C 446.861,1060.53 444.527,1058.19 442.5,1055.5 Z"
       id="path210" />
  </g>
  <g
     id="g216">
    <path
       style="opacity:1"
       fill="#e0bd74"
       d="M 417.5,949.5 C 478.5,949.5 539.5,949.5 600.5,949.5C 599.771,955.373 598.771,961.206 597.5,967C 597.514,968.385 597.848,969.551 598.5,970.5C 592.954,998.149 587.454,1025.82 582,1053.5C 580.25,1055.42 578.417,1057.09 576.5,1058.5C 573.726,1059.72 571.059,1061.22 568.5,1063C 530.5,1063.67 492.5,1063.67 454.5,1063C 450.066,1061.04 446.066,1058.54 442.5,1055.5C 440.59,1054.03 439.424,1052.03 439,1049.5C 431.722,1016.16 424.556,982.826 417.5,949.5 Z"
       id="path214" />
  </g>
  <g
     id="g220">
    <path
       style="opacity:1"
       fill="#fce688"
       d="M 417.5,949.5 C 478.998,948.501 540.664,948.168 602.5,948.5C 600.952,955.79 599.618,963.124 598.5,970.5C 597.848,969.551 597.514,968.385 597.5,967C 598.771,961.206 599.771,955.373 600.5,949.5C 539.5,949.5 478.5,949.5 417.5,949.5 Z"
       id="path218" />
  </g>
  <g
     id="g224">
    <path
       style="opacity:1"
       fill="#022e2f"
       d="M 551.5,928.5 C 556.833,928.5 562.167,928.5 567.5,928.5C 584.5,928.5 601.5,928.5 618.5,928.5C 546.674,930.415 474.674,930.915 402.5,930C 452.335,929.833 502.002,929.333 551.5,928.5 Z"
       id="path222" />
  </g>
  <g
     id="g228">
    <path
       style="opacity:1"
       fill="#fde086"
       d="M 567.5,928.5 C 562.167,928.5 556.833,928.5 551.5,928.5C 501.833,928.5 452.167,928.5 402.5,928.5C 402.5,927.5 402.5,926.5 402.5,925.5C 402.343,924.127 402.51,922.793 403,921.5C 403.495,923.473 403.662,925.473 403.5,927.5C 458.336,927.168 513.003,927.501 567.5,928.5 Z"
       id="path226" />
  </g>
  <g
     id="g232">
    <path
       style="opacity:1"
       fill="#e0bc74"
       d="M 621.5,899.5 C 620.566,909.173 619.566,918.84 618.5,928.5C 601.5,928.5 584.5,928.5 567.5,928.5C 513.003,927.501 458.336,927.168 403.5,927.5C 403.662,925.473 403.495,923.473 403,921.5C 402.51,922.793 402.343,924.127 402.5,925.5C 400.629,913.718 399.629,901.718 399.5,889.5C 472.763,888.337 546.096,888.17 619.5,889C 620.135,892.603 620.802,896.103 621.5,899.5 Z"
       id="path230" />
  </g>
  <g
     id="g236">
    <path
       style="opacity:1"
       fill="#fbe585"
       d="M 619.5,887.5 C 622.092,889.036 623.092,891.369 622.5,894.5C 621.549,895.919 621.216,897.585 621.5,899.5C 620.802,896.103 620.135,892.603 619.5,889C 546.096,888.17 472.763,888.337 399.5,889.5C 472.492,887.503 545.826,886.836 619.5,887.5 Z"
       id="path234" />
  </g>
  <g
     id="g240">
    <path
       style="opacity:1"
       fill="#063231"
       d="M 622.5,894.5 C 623.092,891.369 622.092,889.036 619.5,887.5C 546.334,886.667 473.001,886.167 399.5,886C 473.167,885.333 546.833,885.333 620.5,886C 621.333,886.833 622.167,887.667 623,888.5C 623.861,894.978 623.694,896.978 622.5,894.5 Z"
       id="path238" />
  </g>
  <g
     id="g244">
    <path
       style="opacity:1"
       fill="#f6f8e7"
       d="M 529.5,780.5 C 529.5,788.833 529.5,797.167 529.5,805.5C 524.738,815.36 520.238,825.36 516,835.5C 515.5,828.508 515.334,821.508 515.5,814.5C 515.337,812.143 515.503,809.81 516,807.5C 516.333,814.5 516.667,821.5 517,828.5C 520.318,821.864 523.651,815.198 527,808.5C 527.233,797.753 528.066,788.42 529.5,780.5 Z"
       id="path242" />
  </g>
  <g
     id="g248">
    <path
       style="opacity:1"
       fill="#031e13"
       d="M 512.5,731.5 C 513.167,750.833 513.833,770.167 514.5,789.5C 514.5,797.833 514.5,806.167 514.5,814.5C 512.8,790.204 512.134,762.537 512.5,731.5 Z"
       id="path246" />
  </g>
  <g
     id="g252">
    <path
       style="opacity:1"
       fill="#103628"
       d="M 451.5,1083.5 C 491.544,1082.58 531.544,1082.58 571.5,1083.5C 532.239,1084.49 492.906,1084.83 453.5,1084.5C 453.158,1083.66 452.492,1083.33 451.5,1083.5 Z"
       id="path250" />
  </g>
  <g
     id="g256">
    <path
       style="opacity:1"
       fill="#f7f8ea"
       d="M 611.5,1006.5 C 612.139,1007.1 612.472,1007.93 612.5,1009C 609.125,1026.21 605.625,1043.38 602,1060.5C 595.995,1071.5 587.162,1079.34 575.5,1084C 554.729,1085.15 533.895,1085.65 513,1085.5C 492.997,1085.5 473.164,1085.17 453.5,1084.5C 492.906,1084.83 532.239,1084.49 571.5,1083.5C 582.863,1079.9 592.029,1073.23 599,1063.5C 603.957,1044.67 608.124,1025.67 611.5,1006.5 Z"
       id="path254" />
  </g>
  <g
     id="g260">
    <path
       style="opacity:1"
       fill="#053020"
       d="M 733.5,1127.5 C 733.5,1126.17 733.5,1124.83 733.5,1123.5C 734.33,1114.34 734.83,1105.01 735,1095.5C 735.883,1106.88 735.55,1118.22 734,1129.5C 733.536,1128.91 733.369,1128.24 733.5,1127.5 Z"
       id="path258" />
  </g>
  <g
     id="g264">
    <path
       style="opacity:1"
       fill="#c6debc"
       d="M 792.5,1087.5 C 795.523,1088.32 798.356,1088.32 801,1087.5C 801.839,1088.62 803.006,1089.29 804.5,1089.5C 812.998,1091.28 821.498,1092.94 830,1094.5C 832.411,1092.85 833.578,1093.51 833.5,1096.5C 841.171,1096.41 848.337,1098.08 855,1101.5C 855.308,1100.69 855.808,1100.03 856.5,1099.5C 862.099,1100.97 867.432,1102.97 872.5,1105.5C 875.934,1106.45 877.767,1108.78 878,1112.5C 878.519,1111.48 879.353,1110.82 880.5,1110.5C 885.383,1111.19 889.216,1113.52 892,1117.5C 893.037,1120.41 894.204,1123.24 895.5,1126C 894.167,1126.33 892.833,1126.67 891.5,1127C 893.18,1127.35 894.18,1128.35 894.5,1130C 893.34,1132.16 892.174,1134.33 891,1136.5C 888.931,1137.26 886.764,1137.76 884.5,1138C 885.711,1138.89 885.711,1139.73 884.5,1140.5C 880.126,1142.36 875.793,1144.19 871.5,1146C 862.008,1148.79 852.674,1151.79 843.5,1155C 825.928,1158.54 808.261,1161.54 790.5,1164C 786.577,1164.79 782.744,1164.63 779,1163.5C 778.667,1176.5 778.333,1189.5 778,1202.5C 777.5,1176.17 777.333,1149.84 777.5,1123.5C 780.5,1121.33 783,1118.67 785,1115.5C 788.438,1106.42 790.938,1097.08 792.5,1087.5 Z"
       id="path262" />
  </g>
  <g
     id="g276">
    <path
       style="opacity:1"
       fill="#bad8b9"
       d="M 288.5,1271.5 C 299.996,1276.78 311.996,1280.44 324.5,1282.5C 331.833,1282.5 339.167,1282.5 346.5,1282.5C 339.679,1283.33 332.679,1283.83 325.5,1284C 448.833,1284.67 572.167,1284.67 695.5,1284C 697.833,1283.67 700.167,1283.33 702.5,1283C 701.552,1282.52 700.552,1282.35 699.5,1282.5C 702.003,1281.63 704.67,1280.96 707.5,1280.5C 713.314,1279.3 718.981,1277.63 724.5,1275.5C 724.56,1276.04 724.893,1276.38 725.5,1276.5C 731.545,1274.4 737.045,1271.4 742,1267.5C 754.434,1270.04 766.934,1272.2 779.5,1274C 785.409,1275.59 791.075,1277.93 796.5,1281C 792.49,1286.28 787.156,1289.28 780.5,1290C 772.182,1291.36 763.849,1292.53 755.5,1293.5C 735.996,1296.48 716.329,1298.31 696.5,1299C 563.781,1304.33 431.114,1303.5 298.5,1296.5C 279.059,1295.32 259.725,1292.48 240.5,1288C 236.35,1286.42 232.35,1284.59 228.5,1282.5C 233.427,1279.43 238.76,1277.26 244.5,1276C 256.873,1273.42 269.04,1270.59 281,1267.5C 283.158,1269.49 285.658,1270.83 288.5,1271.5 Z"
       id="path274" />
  </g>
  <g
     id="g280">
    <path
       style="opacity:1"
       fill="#cfeac9"
       d="M 346.5,1282.5 C 464.167,1282.5 581.833,1282.5 699.5,1282.5C 700.552,1282.35 701.552,1282.52 702.5,1283C 700.167,1283.33 697.833,1283.67 695.5,1284C 572.167,1284.67 448.833,1284.67 325.5,1284C 332.679,1283.83 339.679,1283.33 346.5,1282.5 Z"
       id="path278" />
  </g>
  <g
     id="g284">
    <path
       style="opacity:1"
       fill="#0e362c"
       d="M 707.5,1280.5 C 704.67,1280.96 702.003,1281.63 699.5,1282.5C 581.833,1282.5 464.167,1282.5 346.5,1282.5C 339.167,1282.5 331.833,1282.5 324.5,1282.5C 447.999,1281.67 571.666,1281.17 695.5,1281C 698.861,1280.66 702.194,1280.16 705.5,1279.5C 706.416,1279.54 707.083,1279.88 707.5,1280.5 Z"
       id="path282" />
  </g>
  <g
     id="g288">
    <path
       style="opacity:1"
       fill="#366249"
       d="M 484.5,1177.5 C 502.836,1177.33 521.17,1177.5 539.5,1178C 547.79,1181.79 553.457,1187.96 556.5,1196.5C 556.392,1197.44 556.059,1198.28 555.5,1199C 557.338,1200.33 558.338,1202.16 558.5,1204.5C 557.27,1219.83 549.603,1230.33 535.5,1236C 519.5,1236.67 503.5,1236.67 487.5,1236C 471.426,1232.54 463.76,1222.54 464.5,1206C 464.622,1199.7 466.289,1193.87 469.5,1188.5C 474.261,1184.39 479.261,1180.72 484.5,1177.5 Z"
       id="path286" />
  </g>
  <g
     id="g292">
    <path
       style="opacity:1"
       fill="#082f1a"
       d="M 680.5,1143.5 C 555.167,1144.83 429.833,1144.83 304.5,1143.5C 429.823,1143.3 555.157,1143.3 680.5,1143.5 Z"
       id="path290" />
  </g>
  <g
     id="g296">
    <path
       style="opacity:1"
       fill="#dfe4d4"
       d="M 702.5,1142.5 C 695.132,1142.32 687.799,1142.65 680.5,1143.5C 555.157,1143.3 429.823,1143.3 304.5,1143.5C 297.274,1141.94 292.607,1137.61 290.5,1130.5C 290.435,1130.06 290.601,1129.73 291,1129.5C 292.942,1135.78 297.109,1139.61 303.5,1141C 441.844,1141.16 574.844,1141.66 702.5,1142.5 Z"
       id="path294" />
  </g>
</svg>
